{
    "asset" : {
        "generator" : "Khronos glTF Blender I/O v1.7.33",
        "version" : "2.0"
    },
    "scene" : 0,
    "scenes" : [
        {
            "name" : "0",
            "nodes" : [
                0,
                1,
                2,
                3,
                4
            ]
        }
    ],
    "nodes" : [
        {
            "mesh" : 0,
            "name" : "TERRAIN_SHALLOW_WATER"
        },
        {
            "mesh" : 1,
            "name" : "TERRAIN_WATER"
        },
        {
            "mesh" : 2,
            "name" : "TERRAIN_BARE"
        },
        {
            "mesh" : 3,
            "name" : "TERRAIN_SAND"
        },
        {
            "mesh" : 4,
            "name" : "TERRAIN_GRASS"
        }
    ],
    "materials" : [
        {
            "doubleSided" : true,
            "name" : "TERRAIN_SHALLOW_WATER",
            "pbrMetallicRoughness" : {}
        },
        {
            "doubleSided" : true,
            "name" : "TERRAIN_WATER",
            "pbrMetallicRoughness" : {}
        },
        {
            "doubleSided" : true,
            "name" : "TERRAIN_BARE",
            "pbrMetallicRoughness" : {}
        },
        {
            "doubleSided" : true,
            "name" : "TERRAIN_SAND",
            "pbrMetallicRoughness" : {}
        },
        {
            "doubleSided" : true,
            "name" : "TERRAIN_GRASS",
            "pbrMetallicRoughness" : {}
        }
    ],
    "meshes" : [
        {
            "name" : "Plane",
            "primitives" : [
                {
                    "attributes" : {
                        "POSITION" : 0,
                        "NORMAL" : 1
                    },
                    "indices" : 2,
                    "material" : 0
                }
            ]
        },
        {
            "name" : "Plane.001",
            "primitives" : [
                {
                    "attributes" : {
                        "POSITION" : 3,
                        "NORMAL" : 4
                    },
                    "indices" : 5,
                    "material" : 1
                }
            ]
        },
        {
            "name" : "Plane.002",
            "primitives" : [
                {
                    "attributes" : {
                        "POSITION" : 6,
                        "NORMAL" : 7
                    },
                    "indices" : 8,
                    "material" : 2
                }
            ]
        },
        {
            "name" : "Plane.003",
            "primitives" : [
                {
                    "attributes" : {
                        "POSITION" : 9,
                        "NORMAL" : 10
                    },
                    "indices" : 11,
                    "material" : 3
                }
            ]
        },
        {
            "name" : "Plane.004",
            "primitives" : [
                {
                    "attributes" : {
                        "POSITION" : 12,
                        "NORMAL" : 13
                    },
                    "indices" : 14,
                    "material" : 4
                }
            ]
        }
    ],
    "accessors" : [
        {
            "bufferView" : 0,
            "componentType" : 5126,
            "count" : 48,
            "max" : [
                40.90909194946289,
                0,
                22.727275848388672
            ],
            "min" : [
                -40.90909194946289,
                0,
                -31.81818199157715
            ],
            "type" : "VEC3"
        },
        {
            "bufferView" : 1,
            "componentType" : 5126,
            "count" : 48,
            "type" : "VEC3"
        },
        {
            "bufferView" : 2,
            "componentType" : 5123,
            "count" : 114,
            "type" : "SCALAR"
        },
        {
            "bufferView" : 3,
            "componentType" : 5126,
            "count" : 96,
            "max" : [
                50,
                0,
                22.727275848388672
            ],
            "min" : [
                -50,
                0,
                -50
            ],
            "type" : "VEC3"
        },
        {
            "bufferView" : 4,
            "componentType" : 5126,
            "count" : 96,
            "type" : "VEC3"
        },
        {
            "bufferView" : 5,
            "componentType" : 5123,
            "count" : 309,
            "type" : "SCALAR"
        },
        {
            "bufferView" : 6,
            "componentType" : 5126,
            "count" : 67,
            "max" : [
                50,
                0,
                50
            ],
            "min" : [
                -50,
                0,
                -50
            ],
            "type" : "VEC3"
        },
        {
            "bufferView" : 7,
            "componentType" : 5126,
            "count" : 67,
            "type" : "VEC3"
        },
        {
            "bufferView" : 8,
            "componentType" : 5123,
            "count" : 141,
            "type" : "SCALAR"
        },
        {
            "bufferView" : 9,
            "componentType" : 5126,
            "count" : 137,
            "max" : [
                50,
                0,
                50
            ],
            "min" : [
                -50,
                0,
                -50
            ],
            "type" : "VEC3"
        },
        {
            "bufferView" : 10,
            "componentType" : 5126,
            "count" : 137,
            "type" : "VEC3"
        },
        {
            "bufferView" : 11,
            "componentType" : 5123,
            "count" : 378,
            "type" : "SCALAR"
        },
        {
            "bufferView" : 12,
            "componentType" : 5126,
            "count" : 44,
            "max" : [
                40.90909194946289,
                0,
                50
            ],
            "min" : [
                -50,
                0,
                -31.81818389892578
            ],
            "type" : "VEC3"
        },
        {
            "bufferView" : 13,
            "componentType" : 5126,
            "count" : 44,
            "type" : "VEC3"
        },
        {
            "bufferView" : 14,
            "componentType" : 5123,
            "count" : 102,
            "type" : "SCALAR"
        }
    ],
    "bufferViews" : [
        {
            "buffer" : 0,
            "byteLength" : 576,
            "byteOffset" : 0
        },
        {
            "buffer" : 0,
            "byteLength" : 576,
            "byteOffset" : 576
        },
        {
            "buffer" : 0,
            "byteLength" : 228,
            "byteOffset" : 1152
        },
        {
            "buffer" : 0,
            "byteLength" : 1152,
            "byteOffset" : 1380
        },
        {
            "buffer" : 0,
            "byteLength" : 1152,
            "byteOffset" : 2532
        },
        {
            "buffer" : 0,
            "byteLength" : 618,
            "byteOffset" : 3684
        },
        {
            "buffer" : 0,
            "byteLength" : 804,
            "byteOffset" : 4304
        },
        {
            "buffer" : 0,
            "byteLength" : 804,
            "byteOffset" : 5108
        },
        {
            "buffer" : 0,
            "byteLength" : 282,
            "byteOffset" : 5912
        },
        {
            "buffer" : 0,
            "byteLength" : 1644,
            "byteOffset" : 6196
        },
        {
            "buffer" : 0,
            "byteLength" : 1644,
            "byteOffset" : 7840
        },
        {
            "buffer" : 0,
            "byteLength" : 756,
            "byteOffset" : 9484
        },
        {
            "buffer" : 0,
            "byteLength" : 528,
            "byteOffset" : 10240
        },
        {
            "buffer" : 0,
            "byteLength" : 528,
            "byteOffset" : 10768
        },
        {
            "buffer" : 0,
            "byteLength" : 204,
            "byteOffset" : 11296
        }
    ],
    "buffers" : [
        {
            "byteLength" : 11500,
            "uri" : "data:application/octet-stream;base64,"
        }
    ]
}
