{
    "asset" : {
        "generator" : "Khronos glTF Blender I/O v1.7.33",
        "version" : "2.0"
    },
    "scene" : 0,
    "scenes" : [
        {
            "name" : "0",
            "nodes" : [
                0,
                1,
                2,
                3,
                4,
                5,
                6,
                7,
                8,
                9,
                10,
                11
            ]
        }
    ],
    "nodes" : [
        {
            "mesh" : 0,
            "name" : "0_Body"
        },
        {
            "mesh" : 1,
            "name" : "3_Elevator"
        },
        {
            "mesh" : 2,
            "name" : "5_EngineInterior"
        },
        {
            "mesh" : 3,
            "name" : "6_EngineExterior"
        },
        {
            "mesh" : 4,
            "name" : "4_ElevatorContrast"
        },
        {
            "mesh" : 5,
            "name" : "1_BodyContrast"
        },
        {
            "mesh" : 6,
            "name" : "2_Cockpit"
        },
        {
            "mesh" : 7,
            "name" : "5_Intake"
        },
        {
            "mesh" : 8,
            "name" : "8_LightRed",
            "scale" : [
                1.03000009059906,
                1,
                1
            ]
        },
        {
            "mesh" : 9,
            "name" : "8_LightGreen",
            "scale" : [
                1.03000009059906,
                1,
                1
            ]
        },
        {
            "extras" : {
                "time" : "night"
            },
            "mesh" : 10,
            "name" : "6_FireCone"
        },
        {
            "extras" : {
                "time" : "night"
            },
            "mesh" : 11,
            "name" : "7_LightYellow"
        }
    ],
    "materials" : [
        {
            "doubleSided" : true,
            "name" : "VEHICLE_PLANE_GREY",
            "pbrMetallicRoughness" : {
                "baseColorFactor" : [
                    0.22322796285152435,
                    0.22696587443351746,
                    0.2345505952835083,
                    1
                ],
                "metallicFactor" : 0,
                "roughnessFactor" : 0.5
            }
        },
        {
            "doubleSided" : true,
            "name" : "FX_FIRE",
            "pbrMetallicRoughness" : {
                "baseColorFactor" : [
                    1,
                    0.29256540536880493,
                    0.0026047497522085905,
                    1
                ],
                "metallicFactor" : 0,
                "roughnessFactor" : 0.4000000059604645
            }
        },
        {
            "doubleSided" : true,
            "name" : "VEHICLE_PLANE_ENGINE",
            "pbrMetallicRoughness" : {
                "baseColorFactor" : [
                    0.07036013901233673,
                    0.06480326503515244,
                    0.07618542015552521,
                    1
                ],
                "metallicFactor" : 0,
                "roughnessFactor" : 0.5
            }
        },
        {
            "doubleSided" : true,
            "name" : "VEHICLE_PLANE_NAVY",
            "pbrMetallicRoughness" : {
                "baseColorFactor" : [
                    0.15896090865135193,
                    0.19120173156261444,
                    0.21952621638774872,
                    1
                ],
                "metallicFactor" : 0,
                "roughnessFactor" : 0.5
            }
        },
        {
            "doubleSided" : true,
            "name" : "GLASS",
            "pbrMetallicRoughness" : {
                "baseColorFactor" : [
                    0.0062348912470042706,
                    0.4421091675758362,
                    1,
                    1
                ],
                "metallicFactor" : 0,
                "roughnessFactor" : 0.5
            }
        },
        {
            "doubleSided" : true,
            "name" : "VEHICLE_PLANE_INTAKE",
            "pbrMetallicRoughness" : {
                "baseColorFactor" : [
                    0.09758739173412323,
                    0.09989874064922333,
                    0.10224172472953796,
                    1
                ],
                "metallicFactor" : 0,
                "roughnessFactor" : 0.5
            }
        },
        {
            "doubleSided" : true,
            "name" : "LIGHT_RED",
            "pbrMetallicRoughness" : {
                "baseColorFactor" : [
                    0.22322796285152435,
                    0.22696587443351746,
                    0.2345505952835083,
                    1
                ],
                "metallicFactor" : 0,
                "roughnessFactor" : 0.5
            }
        },
        {
            "doubleSided" : true,
            "name" : "LIGHT_GREEN",
            "pbrMetallicRoughness" : {
                "baseColorFactor" : [
                    0.22322796285152435,
                    0.22696587443351746,
                    0.2345505952835083,
                    1
                ],
                "metallicFactor" : 0,
                "roughnessFactor" : 0.5
            }
        },
        {
            "doubleSided" : true,
            "name" : "LIGHT_YELLOW",
            "pbrMetallicRoughness" : {
                "baseColorFactor" : [
                    0.22322796285152435,
                    0.22696587443351746,
                    0.2345505952835083,
                    1
                ],
                "metallicFactor" : 0,
                "roughnessFactor" : 0.5
            }
        }
    ],
    "meshes" : [
        {
            "name" : "Plane.002",
            "primitives" : [
                {
                    "attributes" : {
                        "POSITION" : 0,
                        "NORMAL" : 1
                    },
                    "indices" : 2,
                    "material" : 0
                }
            ]
        },
        {
            "name" : "Cylinder",
            "primitives" : [
                {
                    "attributes" : {
                        "POSITION" : 3,
                        "NORMAL" : 4
                    },
                    "indices" : 5,
                    "material" : 0
                }
            ]
        },
        {
            "name" : "Plane.001",
            "primitives" : [
                {
                    "attributes" : {
                        "POSITION" : 6,
                        "NORMAL" : 7
                    },
                    "indices" : 8,
                    "material" : 1
                }
            ]
        },
        {
            "name" : "Plane.003",
            "primitives" : [
                {
                    "attributes" : {
                        "POSITION" : 9,
                        "NORMAL" : 10
                    },
                    "indices" : 11,
                    "material" : 2
                }
            ]
        },
        {
            "name" : "Cylinder.001",
            "primitives" : [
                {
                    "attributes" : {
                        "POSITION" : 12,
                        "NORMAL" : 13
                    },
                    "indices" : 14,
                    "material" : 3
                }
            ]
        },
        {
            "name" : "Plane.004",
            "primitives" : [
                {
                    "attributes" : {
                        "POSITION" : 15,
                        "NORMAL" : 16
                    },
                    "indices" : 17,
                    "material" : 3
                }
            ]
        },
        {
            "name" : "Plane.005",
            "primitives" : [
                {
                    "attributes" : {
                        "POSITION" : 18,
                        "NORMAL" : 19
                    },
                    "indices" : 20,
                    "material" : 4
                }
            ]
        },
        {
            "name" : "Plane.006",
            "primitives" : [
                {
                    "attributes" : {
                        "POSITION" : 21,
                        "NORMAL" : 22
                    },
                    "indices" : 23,
                    "material" : 5
                }
            ]
        },
        {
            "name" : "Plane.007",
            "primitives" : [
                {
                    "attributes" : {
                        "POSITION" : 24
                    },
                    "material" : 6,
                    "mode" : 0
                }
            ]
        },
        {
            "name" : "Plane.008",
            "primitives" : [
                {
                    "attributes" : {
                        "POSITION" : 25
                    },
                    "material" : 7,
                    "mode" : 0
                }
            ]
        },
        {
            "name" : "Plane.009",
            "primitives" : [
                {
                    "attributes" : {
                        "POSITION" : 26,
                        "NORMAL" : 27
                    },
                    "indices" : 28,
                    "material" : 1
                }
            ]
        },
        {
            "name" : "Plane.010",
            "primitives" : [
                {
                    "attributes" : {
                        "POSITION" : 29
                    },
                    "material" : 8,
                    "mode" : 0
                }
            ]
        }
    ],
    "accessors" : [
        {
            "bufferView" : 0,
            "componentType" : 5126,
            "count" : 756,
            "max" : [
                6.787332534790039,
                2.982410430908203,
                6.760326385498047
            ],
            "min" : [
                -6.787332534790039,
                -1.0482300519943237,
                -10.445709228515625
            ],
            "type" : "VEC3"
        },
        {
            "bufferView" : 1,
            "componentType" : 5126,
            "count" : 756,
            "type" : "VEC3"
        },
        {
            "bufferView" : 2,
            "componentType" : 5123,
            "count" : 918,
            "type" : "SCALAR"
        },
        {
            "bufferView" : 3,
            "componentType" : 5126,
            "count" : 84,
            "max" : [
                4.469730854034424,
                0.14905795454978943,
                7.523536682128906
            ],
            "min" : [
                -4.469730854034424,
                -0.03025764226913452,
                3.5847949981689453
            ],
            "type" : "VEC3"
        },
        {
            "bufferView" : 4,
            "componentType" : 5126,
            "count" : 84,
            "type" : "VEC3"
        },
        {
            "bufferView" : 5,
            "componentType" : 5123,
            "count" : 180,
            "type" : "SCALAR"
        },
        {
            "bufferView" : 6,
            "componentType" : 5126,
            "count" : 64,
            "max" : [
                1.3004242181777954,
                0.5587787628173828,
                5.572385311126709
            ],
            "min" : [
                -1.3004242181777954,
                -0.3544059097766876,
                4.0738983154296875
            ],
            "type" : "VEC3"
        },
        {
            "bufferView" : 7,
            "componentType" : 5126,
            "count" : 64,
            "type" : "VEC3"
        },
        {
            "bufferView" : 8,
            "componentType" : 5123,
            "count" : 96,
            "type" : "SCALAR"
        },
        {
            "bufferView" : 9,
            "componentType" : 5126,
            "count" : 88,
            "max" : [
                1.3018898963928223,
                0.5587787628173828,
                5.572385311126709
            ],
            "min" : [
                -1.3018898963928223,
                -0.59468013048172,
                4.072822570800781
            ],
            "type" : "VEC3"
        },
        {
            "bufferView" : 10,
            "componentType" : 5126,
            "count" : 88,
            "type" : "VEC3"
        },
        {
            "bufferView" : 11,
            "componentType" : 5123,
            "count" : 120,
            "type" : "SCALAR"
        },
        {
            "bufferView" : 12,
            "componentType" : 5126,
            "count" : 20,
            "max" : [
                3.940006732940674,
                0.14905795454978943,
                6.9768195152282715
            ],
            "min" : [
                -3.940006732940674,
                -0.03025764226913452,
                4.613574504852295
            ],
            "type" : "VEC3"
        },
        {
            "bufferView" : 13,
            "componentType" : 5126,
            "count" : 20,
            "type" : "VEC3"
        },
        {
            "bufferView" : 14,
            "componentType" : 5123,
            "count" : 36,
            "type" : "SCALAR"
        },
        {
            "bufferView" : 15,
            "componentType" : 5126,
            "count" : 52,
            "max" : [
                6.787332534790039,
                0.5742133259773254,
                3.0599780082702637
            ],
            "min" : [
                -6.787332534790039,
                -0.6739070415496826,
                -11.30333137512207
            ],
            "type" : "VEC3"
        },
        {
            "bufferView" : 16,
            "componentType" : 5126,
            "count" : 52,
            "type" : "VEC3"
        },
        {
            "bufferView" : 17,
            "componentType" : 5123,
            "count" : 60,
            "type" : "SCALAR"
        },
        {
            "bufferView" : 18,
            "componentType" : 5126,
            "count" : 34,
            "max" : [
                0.48102447390556335,
                1.2256228923797607,
                -5.731678009033203
            ],
            "min" : [
                -0.48102447390556335,
                0.4546727240085602,
                -8.688444137573242
            ],
            "type" : "VEC3"
        },
        {
            "bufferView" : 19,
            "componentType" : 5126,
            "count" : 34,
            "type" : "VEC3"
        },
        {
            "bufferView" : 20,
            "componentType" : 5123,
            "count" : 42,
            "type" : "SCALAR"
        },
        {
            "bufferView" : 21,
            "componentType" : 5126,
            "count" : 8,
            "max" : [
                1.834040641784668,
                0.022314272820949554,
                -4.930542945861816
            ],
            "min" : [
                -1.834040641784668,
                -1.048229694366455,
                -6.477242469787598
            ],
            "type" : "VEC3"
        },
        {
            "bufferView" : 22,
            "componentType" : 5126,
            "count" : 8,
            "type" : "VEC3"
        },
        {
            "bufferView" : 23,
            "componentType" : 5123,
            "count" : 12,
            "type" : "SCALAR"
        },
        {
            "bufferView" : 24,
            "componentType" : 5126,
            "count" : 1,
            "max" : [
                -6.787332534790039,
                -0.35431039333343506,
                2.4880614280700684
            ],
            "min" : [
                -6.787332534790039,
                -0.35431039333343506,
                2.4880614280700684
            ],
            "type" : "VEC3"
        },
        {
            "bufferView" : 25,
            "componentType" : 5126,
            "count" : 1,
            "max" : [
                6.787332534790039,
                -0.35431039333343506,
                2.4880614280700684
            ],
            "min" : [
                6.787332534790039,
                -0.35431039333343506,
                2.4880614280700684
            ],
            "type" : "VEC3"
        },
        {
            "bufferView" : 26,
            "componentType" : 5126,
            "count" : 24,
            "max" : [
                1.046410083770752,
                0.3999999761581421,
                7.300000190734863
            ],
            "min" : [
                -1.046410322189331,
                -0.19999998807907104,
                5.300000190734863
            ],
            "type" : "VEC3"
        },
        {
            "bufferView" : 27,
            "componentType" : 5126,
            "count" : 24,
            "type" : "VEC3"
        },
        {
            "bufferView" : 28,
            "componentType" : 5123,
            "count" : 24,
            "type" : "SCALAR"
        },
        {
            "bufferView" : 29,
            "componentType" : 5126,
            "count" : 2,
            "max" : [
                2.9869301319122314,
                3.0906012058258057,
                3.6092000007629395
            ],
            "min" : [
                -2.9869301319122314,
                3.0906012058258057,
                3.6092000007629395
            ],
            "type" : "VEC3"
        }
    ],
    "bufferViews" : [
        {
            "buffer" : 0,
            "byteLength" : 9072,
            "byteOffset" : 0
        },
        {
            "buffer" : 0,
            "byteLength" : 9072,
            "byteOffset" : 9072
        },
        {
            "buffer" : 0,
            "byteLength" : 1836,
            "byteOffset" : 18144
        },
        {
            "buffer" : 0,
            "byteLength" : 1008,
            "byteOffset" : 19980
        },
        {
            "buffer" : 0,
            "byteLength" : 1008,
            "byteOffset" : 20988
        },
        {
            "buffer" : 0,
            "byteLength" : 360,
            "byteOffset" : 21996
        },
        {
            "buffer" : 0,
            "byteLength" : 768,
            "byteOffset" : 22356
        },
        {
            "buffer" : 0,
            "byteLength" : 768,
            "byteOffset" : 23124
        },
        {
            "buffer" : 0,
            "byteLength" : 192,
            "byteOffset" : 23892
        },
        {
            "buffer" : 0,
            "byteLength" : 1056,
            "byteOffset" : 24084
        },
        {
            "buffer" : 0,
            "byteLength" : 1056,
            "byteOffset" : 25140
        },
        {
            "buffer" : 0,
            "byteLength" : 240,
            "byteOffset" : 26196
        },
        {
            "buffer" : 0,
            "byteLength" : 240,
            "byteOffset" : 26436
        },
        {
            "buffer" : 0,
            "byteLength" : 240,
            "byteOffset" : 26676
        },
        {
            "buffer" : 0,
            "byteLength" : 72,
            "byteOffset" : 26916
        },
        {
            "buffer" : 0,
            "byteLength" : 624,
            "byteOffset" : 26988
        },
        {
            "buffer" : 0,
            "byteLength" : 624,
            "byteOffset" : 27612
        },
        {
            "buffer" : 0,
            "byteLength" : 120,
            "byteOffset" : 28236
        },
        {
            "buffer" : 0,
            "byteLength" : 408,
            "byteOffset" : 28356
        },
        {
            "buffer" : 0,
            "byteLength" : 408,
            "byteOffset" : 28764
        },
        {
            "buffer" : 0,
            "byteLength" : 84,
            "byteOffset" : 29172
        },
        {
            "buffer" : 0,
            "byteLength" : 96,
            "byteOffset" : 29256
        },
        {
            "buffer" : 0,
            "byteLength" : 96,
            "byteOffset" : 29352
        },
        {
            "buffer" : 0,
            "byteLength" : 24,
            "byteOffset" : 29448
        },
        {
            "buffer" : 0,
            "byteLength" : 12,
            "byteOffset" : 29472
        },
        {
            "buffer" : 0,
            "byteLength" : 12,
            "byteOffset" : 29484
        },
        {
            "buffer" : 0,
            "byteLength" : 288,
            "byteOffset" : 29496
        },
        {
            "buffer" : 0,
            "byteLength" : 288,
            "byteOffset" : 29784
        },
        {
            "buffer" : 0,
            "byteLength" : 48,
            "byteOffset" : 30072
        },
        {
            "buffer" : 0,
            "byteLength" : 24,
            "byteOffset" : 30120
        }
    ],
    "buffers" : [
        {
            "byteLength" : 30144,
            "uri" : "data:application/octet-stream;base64,"
        }
    ]
}
