{
    "asset" : {
        "generator" : "Khronos glTF Blender I/O v1.7.33",
        "version" : "2.0"
    },
    "scene" : 0,
    "scenes" : [
        {
            "name" : "0",
            "nodes" : [
                0,
                1,
                2,
                3,
                4,
                5
            ]
        },
        {
            "name" : "1",
            "nodes" : [
                6,
                7,
                8
            ]
        },
        {
            "name" : "2",
            "nodes" : [
                9,
                10
            ]
        },
        {
            "name" : "3",
            "nodes" : [
                11,
                12
            ]
        }
    ],
    "nodes" : [
        {
            "mesh" : 0,
            "name" : "0_Hangar"
        },
        {
            "mesh" : 1,
            "name" : "1_Door"
        },
        {
            "mesh" : 2,
            "name" : "2_DoorHeader",
            "translation" : [
                0,
                0,
                0.5
            ]
        },
        {
            "extras" : {
                "time" : "day"
            },
            "mesh" : 3,
            "name" : "3_DoorGap_Day",
            "translation" : [
                0,
                0,
                0.5
            ]
        },
        {
            "extras" : {
                "time" : "night"
            },
            "mesh" : 4,
            "name" : "4_Lights",
            "translation" : [
                0,
                1,
                0
            ]
        },
        {
            "extras" : {
                "time" : "night"
            },
            "mesh" : 5,
            "name" : "3_DoorGap_Night",
            "translation" : [
                0,
                0,
                0.5
            ]
        },
        {
            "mesh" : 6,
            "name" : "0_Hangar.001"
        },
        {
            "mesh" : 7,
            "name" : "1_Door.001"
        },
        {
            "extras" : {
                "time" : "night"
            },
            "mesh" : 8,
            "name" : "4_Lights.001",
            "translation" : [
                0,
                1,
                0
            ]
        },
        {
            "mesh" : 9,
            "name" : "0_Hangas.003"
        },
        {
            "extras" : {
                "time" : "night"
            },
            "mesh" : 10,
            "name" : "4_Lights.002",
            "translation" : [
                0,
                1,
                0
            ]
        },
        {
            "mesh" : 11,
            "name" : "0_Hangas.001"
        },
        {
            "mesh" : 12,
            "name" : "1_Hangas_Lines"
        }
    ],
    "materials" : [
        {
            "doubleSided" : true,
            "name" : "SCENERY_BUILDING_CONCRETE",
            "pbrMetallicRoughness" : {
                "baseColorFactor" : [
                    0.800000011920929,
                    0.800000011920929,
                    0.800000011920929,
                    1
                ],
                "metallicFactor" : 0,
                "roughnessFactor" : 0.4000000059604645
            }
        },
        {
            "doubleSided" : true,
            "name" : "SCENERY_BUILDING_METAL",
            "pbrMetallicRoughness" : {
                "baseColorFactor" : [
                    0.800000011920929,
                    0.800000011920929,
                    0.800000011920929,
                    1
                ],
                "metallicFactor" : 0,
                "roughnessFactor" : 0.4000000059604645
            }
        },
        {
            "doubleSided" : true,
            "name" : "SCENERY_ROAD_MAIN",
            "pbrMetallicRoughness" : {
                "baseColorFactor" : [
                    0.800000011920929,
                    0.800000011920929,
                    0.800000011920929,
                    1
                ],
                "metallicFactor" : 0,
                "roughnessFactor" : 0.4000000059604645
            }
        },
        {
            "doubleSided" : true,
            "name" : "LIGHT_YELLOW",
            "pbrMetallicRoughness" : {
                "baseColorFactor" : [
                    0.800000011920929,
                    0.800000011920929,
                    0.800000011920929,
                    1
                ],
                "metallicFactor" : 0,
                "roughnessFactor" : 0.4000000059604645
            }
        }
    ],
    "meshes" : [
        {
            "name" : "Cube",
            "primitives" : [
                {
                    "attributes" : {
                        "POSITION" : 0,
                        "NORMAL" : 1
                    },
                    "indices" : 2,
                    "material" : 0
                }
            ]
        },
        {
            "name" : "Cube.001",
            "primitives" : [
                {
                    "attributes" : {
                        "POSITION" : 3,
                        "NORMAL" : 4
                    },
                    "indices" : 5,
                    "material" : 1
                }
            ]
        },
        {
            "name" : "Cube.002",
            "primitives" : [
                {
                    "attributes" : {
                        "POSITION" : 6
                    },
                    "indices" : 7,
                    "material" : 0,
                    "mode" : 1
                }
            ]
        },
        {
            "name" : "Cube.003",
            "primitives" : [
                {
                    "attributes" : {
                        "POSITION" : 8
                    },
                    "indices" : 7,
                    "material" : 2,
                    "mode" : 1
                }
            ]
        },
        {
            "name" : "Cube.004",
            "primitives" : [
                {
                    "attributes" : {
                        "POSITION" : 9
                    },
                    "material" : 3,
                    "mode" : 0
                }
            ]
        },
        {
            "name" : "Cube.005",
            "primitives" : [
                {
                    "attributes" : {
                        "POSITION" : 10
                    },
                    "indices" : 7,
                    "material" : 3,
                    "mode" : 1
                }
            ]
        },
        {
            "name" : "Cube.006",
            "primitives" : [
                {
                    "attributes" : {
                        "POSITION" : 11,
                        "NORMAL" : 12
                    },
                    "indices" : 2,
                    "material" : 0
                }
            ]
        },
        {
            "name" : "Cube.007",
            "primitives" : [
                {
                    "attributes" : {
                        "POSITION" : 13,
                        "NORMAL" : 14
                    },
                    "indices" : 5,
                    "material" : 1
                }
            ]
        },
        {
            "name" : "Cube.010",
            "primitives" : [
                {
                    "attributes" : {
                        "POSITION" : 15
                    },
                    "material" : 3,
                    "mode" : 0
                }
            ]
        },
        {
            "name" : "Cube.016",
            "primitives" : [
                {
                    "attributes" : {
                        "POSITION" : 16,
                        "NORMAL" : 17
                    },
                    "indices" : 18,
                    "material" : 0
                }
            ]
        },
        {
            "name" : "Cube.008",
            "primitives" : [
                {
                    "attributes" : {
                        "POSITION" : 19
                    },
                    "material" : 3,
                    "mode" : 0
                }
            ]
        },
        {
            "name" : "Cube.009",
            "primitives" : [
                {
                    "attributes" : {
                        "POSITION" : 20,
                        "NORMAL" : 21
                    },
                    "indices" : 22,
                    "material" : 0
                }
            ]
        },
        {
            "name" : "Cube.013",
            "primitives" : [
                {
                    "attributes" : {
                        "POSITION" : 23
                    },
                    "indices" : 24,
                    "material" : 0,
                    "mode" : 1
                }
            ]
        }
    ],
    "accessors" : [
        {
            "bufferView" : 0,
            "componentType" : 5126,
            "count" : 38,
            "max" : [
                15,
                12,
                30
            ],
            "min" : [
                -15,
                0,
                -30
            ],
            "type" : "VEC3"
        },
        {
            "bufferView" : 1,
            "componentType" : 5126,
            "count" : 38,
            "type" : "VEC3"
        },
        {
            "bufferView" : 2,
            "componentType" : 5123,
            "count" : 72,
            "type" : "SCALAR"
        },
        {
            "bufferView" : 3,
            "componentType" : 5126,
            "count" : 4,
            "max" : [
                9,
                8,
                30
            ],
            "min" : [
                -9,
                0,
                30
            ],
            "type" : "VEC3"
        },
        {
            "bufferView" : 4,
            "componentType" : 5126,
            "count" : 4,
            "type" : "VEC3"
        },
        {
            "bufferView" : 5,
            "componentType" : 5123,
            "count" : 6,
            "type" : "SCALAR"
        },
        {
            "bufferView" : 6,
            "componentType" : 5126,
            "count" : 2,
            "max" : [
                9,
                8,
                31
            ],
            "min" : [
                -9,
                7.999998569488525,
                31
            ],
            "type" : "VEC3"
        },
        {
            "bufferView" : 7,
            "componentType" : 5123,
            "count" : 2,
            "type" : "SCALAR"
        },
        {
            "bufferView" : 8,
            "componentType" : 5126,
            "count" : 2,
            "max" : [
                0,
                8,
                30
            ],
            "min" : [
                0,
                0,
                30
            ],
            "type" : "VEC3"
        },
        {
            "bufferView" : 9,
            "componentType" : 5126,
            "count" : 4,
            "max" : [
                9,
                12,
                30
            ],
            "min" : [
                -9,
                12,
                -30
            ],
            "type" : "VEC3"
        },
        {
            "bufferView" : 10,
            "componentType" : 5126,
            "count" : 2,
            "max" : [
                0,
                8,
                31
            ],
            "min" : [
                0,
                0,
                31
            ],
            "type" : "VEC3"
        },
        {
            "bufferView" : 11,
            "componentType" : 5126,
            "count" : 38,
            "max" : [
                15,
                12,
                30
            ],
            "min" : [
                -15,
                0,
                -30
            ],
            "type" : "VEC3"
        },
        {
            "bufferView" : 12,
            "componentType" : 5126,
            "count" : 38,
            "type" : "VEC3"
        },
        {
            "bufferView" : 13,
            "componentType" : 5126,
            "count" : 4,
            "max" : [
                9,
                8,
                30
            ],
            "min" : [
                -9,
                0,
                30
            ],
            "type" : "VEC3"
        },
        {
            "bufferView" : 14,
            "componentType" : 5126,
            "count" : 4,
            "type" : "VEC3"
        },
        {
            "bufferView" : 15,
            "componentType" : 5126,
            "count" : 4,
            "max" : [
                9,
                13,
                30
            ],
            "min" : [
                -9,
                13,
                -30
            ],
            "type" : "VEC3"
        },
        {
            "bufferView" : 16,
            "componentType" : 5126,
            "count" : 20,
            "max" : [
                15,
                12,
                30
            ],
            "min" : [
                -15,
                1,
                -30
            ],
            "type" : "VEC3"
        },
        {
            "bufferView" : 17,
            "componentType" : 5126,
            "count" : 20,
            "type" : "VEC3"
        },
        {
            "bufferView" : 18,
            "componentType" : 5123,
            "count" : 30,
            "type" : "SCALAR"
        },
        {
            "bufferView" : 19,
            "componentType" : 5126,
            "count" : 4,
            "max" : [
                9,
                14,
                30
            ],
            "min" : [
                -9,
                14,
                -30
            ],
            "type" : "VEC3"
        },
        {
            "bufferView" : 20,
            "componentType" : 5126,
            "count" : 4,
            "max" : [
                15,
                12,
                30
            ],
            "min" : [
                -15,
                12,
                -30
            ],
            "type" : "VEC3"
        },
        {
            "bufferView" : 21,
            "componentType" : 5126,
            "count" : 4,
            "type" : "VEC3"
        },
        {
            "bufferView" : 22,
            "componentType" : 5123,
            "count" : 6,
            "type" : "SCALAR"
        },
        {
            "bufferView" : 23,
            "componentType" : 5126,
            "count" : 4,
            "max" : [
                15,
                6,
                30
            ],
            "min" : [
                -15,
                6,
                -30
            ],
            "type" : "VEC3"
        },
        {
            "bufferView" : 24,
            "componentType" : 5123,
            "count" : 8,
            "type" : "SCALAR"
        }
    ],
    "bufferViews" : [
        {
            "buffer" : 0,
            "byteLength" : 456,
            "byteOffset" : 0
        },
        {
            "buffer" : 0,
            "byteLength" : 456,
            "byteOffset" : 456
        },
        {
            "buffer" : 0,
            "byteLength" : 144,
            "byteOffset" : 912
        },
        {
            "buffer" : 0,
            "byteLength" : 48,
            "byteOffset" : 1056
        },
        {
            "buffer" : 0,
            "byteLength" : 48,
            "byteOffset" : 1104
        },
        {
            "buffer" : 0,
            "byteLength" : 12,
            "byteOffset" : 1152
        },
        {
            "buffer" : 0,
            "byteLength" : 24,
            "byteOffset" : 1164
        },
        {
            "buffer" : 0,
            "byteLength" : 4,
            "byteOffset" : 1188
        },
        {
            "buffer" : 0,
            "byteLength" : 24,
            "byteOffset" : 1192
        },
        {
            "buffer" : 0,
            "byteLength" : 48,
            "byteOffset" : 1216
        },
        {
            "buffer" : 0,
            "byteLength" : 24,
            "byteOffset" : 1264
        },
        {
            "buffer" : 0,
            "byteLength" : 456,
            "byteOffset" : 1288
        },
        {
            "buffer" : 0,
            "byteLength" : 456,
            "byteOffset" : 1744
        },
        {
            "buffer" : 0,
            "byteLength" : 48,
            "byteOffset" : 2200
        },
        {
            "buffer" : 0,
            "byteLength" : 48,
            "byteOffset" : 2248
        },
        {
            "buffer" : 0,
            "byteLength" : 48,
            "byteOffset" : 2296
        },
        {
            "buffer" : 0,
            "byteLength" : 240,
            "byteOffset" : 2344
        },
        {
            "buffer" : 0,
            "byteLength" : 240,
            "byteOffset" : 2584
        },
        {
            "buffer" : 0,
            "byteLength" : 60,
            "byteOffset" : 2824
        },
        {
            "buffer" : 0,
            "byteLength" : 48,
            "byteOffset" : 2884
        },
        {
            "buffer" : 0,
            "byteLength" : 48,
            "byteOffset" : 2932
        },
        {
            "buffer" : 0,
            "byteLength" : 48,
            "byteOffset" : 2980
        },
        {
            "buffer" : 0,
            "byteLength" : 12,
            "byteOffset" : 3028
        },
        {
            "buffer" : 0,
            "byteLength" : 48,
            "byteOffset" : 3040
        },
        {
            "buffer" : 0,
            "byteLength" : 16,
            "byteOffset" : 3088
        }
    ],
    "buffers" : [
        {
            "byteLength" : 3104,
            "uri" : "data:application/octet-stream;base64,"
        }
    ]
}
