{
    "asset" : {
        "generator" : "Khronos glTF Blender I/O v1.7.33",
        "version" : "2.0"
    },
    "scene" : 1,
    "scenes" : [
        {
            "name" : "0",
            "nodes" : [
                0,
                1,
                2,
                3,
                4,
                5
            ]
        },
        {
            "name" : "1",
            "nodes" : [
                6,
                7,
                8,
                9,
                10
            ]
        },
        {
            "name" : "2",
            "nodes" : [
                11,
                12,
                13
            ]
        }
    ],
    "nodes" : [
        {
            "mesh" : 0,
            "name" : "0_Ground"
        },
        {
            "mesh" : 1,
            "name" : "0_DepotTop"
        },
        {
            "mesh" : 2,
            "name" : "2_Service"
        },
        {
            "mesh" : 3,
            "name" : "0_DepotBottom"
        },
        {
            "mesh" : 4,
            "name" : "1_DepotRailing"
        },
        {
            "extras" : {
                "time" : "night"
            },
            "mesh" : 5,
            "name" : "8_LightYellow"
        },
        {
            "mesh" : 6,
            "name" : "0_Ground.001"
        },
        {
            "mesh" : 7,
            "name" : "0_DepotTop.001"
        },
        {
            "mesh" : 8,
            "name" : "0_DepotBottom.001"
        },
        {
            "mesh" : 9,
            "name" : "1_DepotRailing.001"
        },
        {
            "extras" : {
                "time" : "night"
            },
            "mesh" : 10,
            "name" : "8_LightYellow.001"
        },
        {
            "mesh" : 11,
            "name" : "0_Ground.002"
        },
        {
            "mesh" : 12,
            "name" : "0_DepotTop.002"
        },
        {
            "extras" : {
                "time" : "night"
            },
            "mesh" : 13,
            "name" : "8_LightYellow.002"
        }
    ],
    "materials" : [
        {
            "doubleSided" : true,
            "name" : "TERRAIN_BARE",
            "pbrMetallicRoughness" : {
                "baseColorFactor" : [
                    0.800000011920929,
                    0.800000011920929,
                    0.800000011920929,
                    1
                ],
                "metallicFactor" : 0,
                "roughnessFactor" : 0.5
            }
        },
        {
            "doubleSided" : true,
            "name" : "SCENERY_BUILDING_PLASTER_WHITE",
            "pbrMetallicRoughness" : {
                "baseColorFactor" : [
                    0.800000011920929,
                    0.800000011920929,
                    0.800000011920929,
                    1
                ],
                "metallicFactor" : 0,
                "roughnessFactor" : 0.5
            }
        },
        {
            "doubleSided" : true,
            "name" : "SCENERY_BUILDING_METAL",
            "pbrMetallicRoughness" : {
                "baseColorFactor" : [
                    0.800000011920929,
                    0.800000011920929,
                    0.800000011920929,
                    1
                ],
                "metallicFactor" : 0,
                "roughnessFactor" : 0.5
            }
        },
        {
            "doubleSided" : true,
            "name" : "SCENERY_BUILDING_PLASTER_TEAL",
            "pbrMetallicRoughness" : {
                "baseColorFactor" : [
                    0.800000011920929,
                    0.800000011920929,
                    0.800000011920929,
                    1
                ],
                "metallicFactor" : 0,
                "roughnessFactor" : 0.5
            }
        },
        {
            "doubleSided" : true,
            "name" : "SCENERY_ROAD_SECONDARY",
            "pbrMetallicRoughness" : {
                "baseColorFactor" : [
                    0.800000011920929,
                    0.800000011920929,
                    0.800000011920929,
                    1
                ],
                "metallicFactor" : 0,
                "roughnessFactor" : 0.4000000059604645
            }
        },
        {
            "doubleSided" : true,
            "name" : "LIGHT_YELLOW",
            "pbrMetallicRoughness" : {
                "baseColorFactor" : [
                    0.800000011920929,
                    0.800000011920929,
                    0.800000011920929,
                    1
                ],
                "metallicFactor" : 0,
                "roughnessFactor" : 0.5
            }
        }
    ],
    "meshes" : [
        {
            "name" : "Plane",
            "primitives" : [
                {
                    "attributes" : {
                        "POSITION" : 0,
                        "NORMAL" : 1
                    },
                    "indices" : 2,
                    "material" : 0
                }
            ]
        },
        {
            "name" : "Cylinder",
            "primitives" : [
                {
                    "attributes" : {
                        "POSITION" : 3,
                        "NORMAL" : 4
                    },
                    "indices" : 5,
                    "material" : 1
                }
            ]
        },
        {
            "name" : "Cylinder.001",
            "primitives" : [
                {
                    "attributes" : {
                        "POSITION" : 6
                    },
                    "indices" : 7,
                    "material" : 2,
                    "mode" : 1
                }
            ]
        },
        {
            "name" : "Cylinder.002",
            "primitives" : [
                {
                    "attributes" : {
                        "POSITION" : 8,
                        "NORMAL" : 9
                    },
                    "indices" : 10,
                    "material" : 3
                }
            ]
        },
        {
            "name" : "Cylinder.003",
            "primitives" : [
                {
                    "attributes" : {
                        "POSITION" : 11
                    },
                    "indices" : 12,
                    "material" : 4,
                    "mode" : 1
                }
            ]
        },
        {
            "name" : "Cylinder.005",
            "primitives" : [
                {
                    "attributes" : {
                        "POSITION" : 13
                    },
                    "material" : 5,
                    "mode" : 0
                }
            ]
        },
        {
            "name" : "Plane.001",
            "primitives" : [
                {
                    "attributes" : {
                        "POSITION" : 14,
                        "NORMAL" : 15
                    },
                    "indices" : 2,
                    "material" : 0
                }
            ]
        },
        {
            "name" : "Cylinder.007",
            "primitives" : [
                {
                    "attributes" : {
                        "POSITION" : 16,
                        "NORMAL" : 17
                    },
                    "indices" : 5,
                    "material" : 1
                }
            ]
        },
        {
            "name" : "Cylinder.009",
            "primitives" : [
                {
                    "attributes" : {
                        "POSITION" : 18,
                        "NORMAL" : 19
                    },
                    "indices" : 10,
                    "material" : 3
                }
            ]
        },
        {
            "name" : "Cylinder.010",
            "primitives" : [
                {
                    "attributes" : {
                        "POSITION" : 20
                    },
                    "indices" : 21,
                    "material" : 4,
                    "mode" : 1
                }
            ]
        },
        {
            "name" : "Cylinder.011",
            "primitives" : [
                {
                    "attributes" : {
                        "POSITION" : 22
                    },
                    "material" : 5,
                    "mode" : 0
                }
            ]
        },
        {
            "name" : "Plane.002",
            "primitives" : [
                {
                    "attributes" : {
                        "POSITION" : 23,
                        "NORMAL" : 24
                    },
                    "indices" : 2,
                    "material" : 0
                }
            ]
        },
        {
            "name" : "Cylinder.012",
            "primitives" : [
                {
                    "attributes" : {
                        "POSITION" : 25,
                        "NORMAL" : 26
                    },
                    "indices" : 5,
                    "material" : 1
                }
            ]
        },
        {
            "name" : "Cylinder.015",
            "primitives" : [
                {
                    "attributes" : {
                        "POSITION" : 27
                    },
                    "material" : 5,
                    "mode" : 0
                }
            ]
        }
    ],
    "accessors" : [
        {
            "bufferView" : 0,
            "componentType" : 5126,
            "count" : 4,
            "max" : [
                100,
                0,
                100
            ],
            "min" : [
                -100,
                0,
                -100
            ],
            "type" : "VEC3"
        },
        {
            "bufferView" : 1,
            "componentType" : 5126,
            "count" : 4,
            "type" : "VEC3"
        },
        {
            "bufferView" : 2,
            "componentType" : 5123,
            "count" : 6,
            "type" : "SCALAR"
        },
        {
            "bufferView" : 3,
            "componentType" : 5126,
            "count" : 240,
            "max" : [
                88.63703155517578,
                19.500001907348633,
                88.63703155517578
            ],
            "min" : [
                -88.63703918457031,
                9.750000953674316,
                -88.63703155517578
            ],
            "type" : "VEC3"
        },
        {
            "bufferView" : 4,
            "componentType" : 5126,
            "count" : 240,
            "type" : "VEC3"
        },
        {
            "bufferView" : 5,
            "componentType" : 5123,
            "count" : 408,
            "type" : "SCALAR"
        },
        {
            "bufferView" : 6,
            "componentType" : 5126,
            "count" : 16,
            "max" : [
                90.56888580322266,
                24.700000762939453,
                50
            ],
            "min" : [
                -50,
                0,
                -60.870399475097656
            ],
            "type" : "VEC3"
        },
        {
            "bufferView" : 7,
            "componentType" : 5123,
            "count" : 24,
            "type" : "SCALAR"
        },
        {
            "bufferView" : 8,
            "componentType" : 5126,
            "count" : 192,
            "max" : [
                88.63703155517578,
                9.750000953674316,
                88.63703155517578
            ],
            "min" : [
                -88.63703918457031,
                0,
                -88.63703155517578
            ],
            "type" : "VEC3"
        },
        {
            "bufferView" : 9,
            "componentType" : 5126,
            "count" : 192,
            "type" : "VEC3"
        },
        {
            "bufferView" : 10,
            "componentType" : 5123,
            "count" : 288,
            "type" : "SCALAR"
        },
        {
            "bufferView" : 11,
            "componentType" : 5126,
            "count" : 60,
            "max" : [
                88.63703155517578,
                22.100000381469727,
                91.72799682617188
            ],
            "min" : [
                -91.72799682617188,
                0,
                -88.63703155517578
            ],
            "type" : "VEC3"
        },
        {
            "bufferView" : 12,
            "componentType" : 5123,
            "count" : 120,
            "type" : "SCALAR"
        },
        {
            "bufferView" : 13,
            "componentType" : 5126,
            "count" : 44,
            "max" : [
                90.56887817382812,
                28.100000381469727,
                93.39710998535156
            ],
            "min" : [
                -93.39712524414062,
                2,
                -88.63703155517578
            ],
            "type" : "VEC3"
        },
        {
            "bufferView" : 14,
            "componentType" : 5126,
            "count" : 4,
            "max" : [
                100,
                0,
                100
            ],
            "min" : [
                -100,
                0,
                -100
            ],
            "type" : "VEC3"
        },
        {
            "bufferView" : 15,
            "componentType" : 5126,
            "count" : 4,
            "type" : "VEC3"
        },
        {
            "bufferView" : 16,
            "componentType" : 5126,
            "count" : 240,
            "max" : [
                88.63703155517578,
                19.500001907348633,
                88.63703155517578
            ],
            "min" : [
                -88.63703918457031,
                9.750000953674316,
                -88.63703155517578
            ],
            "type" : "VEC3"
        },
        {
            "bufferView" : 17,
            "componentType" : 5126,
            "count" : 240,
            "type" : "VEC3"
        },
        {
            "bufferView" : 18,
            "componentType" : 5126,
            "count" : 192,
            "max" : [
                88.63703155517578,
                9.750000953674316,
                88.63703155517578
            ],
            "min" : [
                -88.63703918457031,
                0,
                -88.63703155517578
            ],
            "type" : "VEC3"
        },
        {
            "bufferView" : 19,
            "componentType" : 5126,
            "count" : 192,
            "type" : "VEC3"
        },
        {
            "bufferView" : 20,
            "componentType" : 5126,
            "count" : 12,
            "max" : [
                38.81901931762695,
                19.500001907348633,
                91.72799682617188
            ],
            "min" : [
                -91.72799682617188,
                0,
                -38.81901931762695
            ],
            "type" : "VEC3"
        },
        {
            "bufferView" : 21,
            "componentType" : 5123,
            "count" : 16,
            "type" : "SCALAR"
        },
        {
            "bufferView" : 22,
            "componentType" : 5126,
            "count" : 4,
            "max" : [
                49.999996185302734,
                28.100000381469727,
                50
            ],
            "min" : [
                -50.000003814697266,
                28.100000381469727,
                -50
            ],
            "type" : "VEC3"
        },
        {
            "bufferView" : 23,
            "componentType" : 5126,
            "count" : 4,
            "max" : [
                100,
                0,
                100
            ],
            "min" : [
                -100,
                0,
                -100
            ],
            "type" : "VEC3"
        },
        {
            "bufferView" : 24,
            "componentType" : 5126,
            "count" : 4,
            "type" : "VEC3"
        },
        {
            "bufferView" : 25,
            "componentType" : 5126,
            "count" : 240,
            "max" : [
                88.63703155517578,
                19.500001907348633,
                88.63703155517578
            ],
            "min" : [
                -88.63703918457031,
                0,
                -88.63703155517578
            ],
            "type" : "VEC3"
        },
        {
            "bufferView" : 26,
            "componentType" : 5126,
            "count" : 240,
            "type" : "VEC3"
        },
        {
            "bufferView" : 27,
            "componentType" : 5126,
            "count" : 4,
            "max" : [
                49.999996185302734,
                28.100000381469727,
                50
            ],
            "min" : [
                -50.000003814697266,
                28.100000381469727,
                -50
            ],
            "type" : "VEC3"
        }
    ],
    "bufferViews" : [
        {
            "buffer" : 0,
            "byteLength" : 48,
            "byteOffset" : 0
        },
        {
            "buffer" : 0,
            "byteLength" : 48,
            "byteOffset" : 48
        },
        {
            "buffer" : 0,
            "byteLength" : 12,
            "byteOffset" : 96
        },
        {
            "buffer" : 0,
            "byteLength" : 2880,
            "byteOffset" : 108
        },
        {
            "buffer" : 0,
            "byteLength" : 2880,
            "byteOffset" : 2988
        },
        {
            "buffer" : 0,
            "byteLength" : 816,
            "byteOffset" : 5868
        },
        {
            "buffer" : 0,
            "byteLength" : 192,
            "byteOffset" : 6684
        },
        {
            "buffer" : 0,
            "byteLength" : 48,
            "byteOffset" : 6876
        },
        {
            "buffer" : 0,
            "byteLength" : 2304,
            "byteOffset" : 6924
        },
        {
            "buffer" : 0,
            "byteLength" : 2304,
            "byteOffset" : 9228
        },
        {
            "buffer" : 0,
            "byteLength" : 576,
            "byteOffset" : 11532
        },
        {
            "buffer" : 0,
            "byteLength" : 720,
            "byteOffset" : 12108
        },
        {
            "buffer" : 0,
            "byteLength" : 240,
            "byteOffset" : 12828
        },
        {
            "buffer" : 0,
            "byteLength" : 528,
            "byteOffset" : 13068
        },
        {
            "buffer" : 0,
            "byteLength" : 48,
            "byteOffset" : 13596
        },
        {
            "buffer" : 0,
            "byteLength" : 48,
            "byteOffset" : 13644
        },
        {
            "buffer" : 0,
            "byteLength" : 2880,
            "byteOffset" : 13692
        },
        {
            "buffer" : 0,
            "byteLength" : 2880,
            "byteOffset" : 16572
        },
        {
            "buffer" : 0,
            "byteLength" : 2304,
            "byteOffset" : 19452
        },
        {
            "buffer" : 0,
            "byteLength" : 2304,
            "byteOffset" : 21756
        },
        {
            "buffer" : 0,
            "byteLength" : 144,
            "byteOffset" : 24060
        },
        {
            "buffer" : 0,
            "byteLength" : 32,
            "byteOffset" : 24204
        },
        {
            "buffer" : 0,
            "byteLength" : 48,
            "byteOffset" : 24236
        },
        {
            "buffer" : 0,
            "byteLength" : 48,
            "byteOffset" : 24284
        },
        {
            "buffer" : 0,
            "byteLength" : 48,
            "byteOffset" : 24332
        },
        {
            "buffer" : 0,
            "byteLength" : 2880,
            "byteOffset" : 24380
        },
        {
            "buffer" : 0,
            "byteLength" : 2880,
            "byteOffset" : 27260
        },
        {
            "buffer" : 0,
            "byteLength" : 48,
            "byteOffset" : 30140
        }
    ],
    "buffers" : [
        {
            "byteLength" : 30188,
            "uri" : "data:application/octet-stream;base64,"
        }
    ]
}
