{
    "asset" : {
        "generator" : "Khronos glTF Blender I/O v1.7.33",
        "version" : "2.0"
    },
    "scene" : 1,
    "scenes" : [
        {
            "name" : "0",
            "nodes" : [
                0,
                1,
                2,
                3,
                4,
                5,
                6,
                7,
                8
            ]
        },
        {
            "name" : "1",
            "nodes" : [
                9,
                10,
                11,
                12
            ]
        }
    ],
    "nodes" : [
        {
            "mesh" : 0,
            "name" : "0_Runway"
        },
        {
            "mesh" : 1,
            "name" : "2_Threshold"
        },
        {
            "mesh" : 2,
            "name" : "3_RunwayFrame"
        },
        {
            "extras" : {
                "time" : "day"
            },
            "mesh" : 3,
            "name" : "2_CenterLine"
        },
        {
            "extras" : {
                "time" : "day"
            },
            "mesh" : 4,
            "name" : "1_CenterLine_Line"
        },
        {
            "mesh" : 5,
            "name" : "1_Threshold_Line"
        },
        {
            "mesh" : 6,
            "name" : "5_RedLights"
        },
        {
            "extras" : {
                "time" : "night"
            },
            "mesh" : 7,
            "name" : "4_YellowLights"
        },
        {
            "mesh" : 8,
            "name" : "3_Threshold_Point"
        },
        {
            "extras" : {
                "time" : "day"
            },
            "mesh" : 9,
            "name" : "0_Runway.001"
        },
        {
            "mesh" : 10,
            "name" : "5_RedLights.001"
        },
        {
            "extras" : {
                "time" : "night"
            },
            "mesh" : 11,
            "name" : "4_YellowLights.001"
        },
        {
            "mesh" : 12,
            "name" : "3_Threshold_Point.001"
        }
    ],
    "materials" : [
        {
            "name" : "SCENERY_ROAD_SECONDARY",
            "pbrMetallicRoughness" : {
                "baseColorFactor" : [
                    0.800000011920929,
                    0.800000011920929,
                    0.800000011920929,
                    1
                ],
                "metallicFactor" : 0,
                "roughnessFactor" : 0.5
            }
        },
        {
            "name" : "SCENERY_BASE_RUNWAY_THRESHOLD",
            "pbrMetallicRoughness" : {
                "baseColorFactor" : [
                    0.800000011920929,
                    0.800000011920929,
                    0.800000011920929,
                    1
                ],
                "metallicFactor" : 0,
                "roughnessFactor" : 0.5
            }
        },
        {
            "name" : "SCENERY_ROAD_MAIN",
            "pbrMetallicRoughness" : {
                "baseColorFactor" : [
                    0.800000011920929,
                    0.800000011920929,
                    0.800000011920929,
                    1
                ],
                "metallicFactor" : 0,
                "roughnessFactor" : 0.5
            }
        },
        {
            "name" : "SCENERY_BASE_RUNWAY_LINES",
            "pbrMetallicRoughness" : {
                "baseColorFactor" : [
                    0.800000011920929,
                    0.800000011920929,
                    0.800000011920929,
                    1
                ],
                "metallicFactor" : 0,
                "roughnessFactor" : 0.5
            }
        },
        {
            "name" : "LIGHT_RED",
            "pbrMetallicRoughness" : {
                "baseColorFactor" : [
                    0.800000011920929,
                    0.800000011920929,
                    0.800000011920929,
                    1
                ],
                "metallicFactor" : 0,
                "roughnessFactor" : 0.5
            }
        },
        {
            "name" : "LIGHT_YELLOW",
            "pbrMetallicRoughness" : {
                "baseColorFactor" : [
                    0.800000011920929,
                    0.800000011920929,
                    0.800000011920929,
                    1
                ],
                "metallicFactor" : 0,
                "roughnessFactor" : 0.5
            }
        }
    ],
    "meshes" : [
        {
            "name" : "Plane",
            "primitives" : [
                {
                    "attributes" : {
                        "POSITION" : 0,
                        "NORMAL" : 1
                    },
                    "indices" : 2,
                    "material" : 0
                }
            ]
        },
        {
            "name" : "Plane.002",
            "primitives" : [
                {
                    "attributes" : {
                        "POSITION" : 3,
                        "NORMAL" : 4
                    },
                    "indices" : 5,
                    "material" : 1
                }
            ]
        },
        {
            "name" : "Plane.001",
            "primitives" : [
                {
                    "attributes" : {
                        "POSITION" : 6
                    },
                    "indices" : 7,
                    "material" : 2,
                    "mode" : 1
                }
            ]
        },
        {
            "name" : "Plane.003",
            "primitives" : [
                {
                    "attributes" : {
                        "POSITION" : 8,
                        "NORMAL" : 9
                    },
                    "indices" : 10,
                    "material" : 3
                }
            ]
        },
        {
            "name" : "Plane.004",
            "primitives" : [
                {
                    "attributes" : {
                        "POSITION" : 11
                    },
                    "indices" : 12,
                    "material" : 3,
                    "mode" : 1
                }
            ]
        },
        {
            "name" : "Plane.005",
            "primitives" : [
                {
                    "attributes" : {
                        "POSITION" : 13
                    },
                    "indices" : 14,
                    "material" : 1,
                    "mode" : 1
                }
            ]
        },
        {
            "name" : "Plane.006",
            "primitives" : [
                {
                    "attributes" : {
                        "POSITION" : 15
                    },
                    "material" : 4,
                    "mode" : 0
                }
            ]
        },
        {
            "name" : "Plane.007",
            "primitives" : [
                {
                    "attributes" : {
                        "POSITION" : 16
                    },
                    "material" : 5,
                    "mode" : 0
                }
            ]
        },
        {
            "name" : "Plane.008",
            "primitives" : [
                {
                    "attributes" : {
                        "POSITION" : 17
                    },
                    "material" : 1,
                    "mode" : 0
                }
            ]
        },
        {
            "name" : "Plane.009",
            "primitives" : [
                {
                    "attributes" : {
                        "POSITION" : 18
                    },
                    "indices" : 19,
                    "material" : 0,
                    "mode" : 1
                }
            ]
        },
        {
            "name" : "Plane.015",
            "primitives" : [
                {
                    "attributes" : {
                        "POSITION" : 20
                    },
                    "material" : 4,
                    "mode" : 0
                }
            ]
        },
        {
            "name" : "Plane.016",
            "primitives" : [
                {
                    "attributes" : {
                        "POSITION" : 21
                    },
                    "indices" : 19,
                    "material" : 5,
                    "mode" : 1
                }
            ]
        },
        {
            "name" : "Plane.017",
            "primitives" : [
                {
                    "attributes" : {
                        "POSITION" : 22
                    },
                    "material" : 1,
                    "mode" : 0
                }
            ]
        }
    ],
    "accessors" : [
        {
            "bufferView" : 0,
            "componentType" : 5126,
            "count" : 4,
            "max" : [
                40,
                0,
                1500
            ],
            "min" : [
                -40,
                0,
                -1500
            ],
            "type" : "VEC3"
        },
        {
            "bufferView" : 1,
            "componentType" : 5126,
            "count" : 4,
            "type" : "VEC3"
        },
        {
            "bufferView" : 2,
            "componentType" : 5123,
            "count" : 6,
            "type" : "SCALAR"
        },
        {
            "bufferView" : 3,
            "componentType" : 5126,
            "count" : 32,
            "max" : [
                35,
                0,
                1395
            ],
            "min" : [
                -35,
                0,
                -1395
            ],
            "type" : "VEC3"
        },
        {
            "bufferView" : 4,
            "componentType" : 5126,
            "count" : 32,
            "type" : "VEC3"
        },
        {
            "bufferView" : 5,
            "componentType" : 5123,
            "count" : 48,
            "type" : "SCALAR"
        },
        {
            "bufferView" : 6,
            "componentType" : 5126,
            "count" : 4,
            "max" : [
                40,
                0,
                1500
            ],
            "min" : [
                -40,
                0,
                -1500
            ],
            "type" : "VEC3"
        },
        {
            "bufferView" : 7,
            "componentType" : 5123,
            "count" : 8,
            "type" : "SCALAR"
        },
        {
            "bufferView" : 8,
            "componentType" : 5126,
            "count" : 108,
            "max" : [
                2.5,
                0,
                1200
            ],
            "min" : [
                -2.5,
                0,
                -1200
            ],
            "type" : "VEC3"
        },
        {
            "bufferView" : 9,
            "componentType" : 5126,
            "count" : 108,
            "type" : "VEC3"
        },
        {
            "bufferView" : 10,
            "componentType" : 5123,
            "count" : 162,
            "type" : "SCALAR"
        },
        {
            "bufferView" : 11,
            "componentType" : 5126,
            "count" : 54,
            "max" : [
                0,
                0,
                1200
            ],
            "min" : [
                0,
                0,
                -1200
            ],
            "type" : "VEC3"
        },
        {
            "bufferView" : 12,
            "componentType" : 5123,
            "count" : 54,
            "type" : "SCALAR"
        },
        {
            "bufferView" : 13,
            "componentType" : 5126,
            "count" : 16,
            "max" : [
                30,
                0,
                1395
            ],
            "min" : [
                -30,
                0,
                -1395
            ],
            "type" : "VEC3"
        },
        {
            "bufferView" : 14,
            "componentType" : 5123,
            "count" : 16,
            "type" : "SCALAR"
        },
        {
            "bufferView" : 15,
            "componentType" : 5126,
            "count" : 6,
            "max" : [
                35,
                0.5,
                1450
            ],
            "min" : [
                -35,
                0.5,
                -1450
            ],
            "type" : "VEC3"
        },
        {
            "bufferView" : 16,
            "componentType" : 5126,
            "count" : 29,
            "max" : [
                0,
                0,
                1260
            ],
            "min" : [
                0,
                0,
                -1260
            ],
            "type" : "VEC3"
        },
        {
            "bufferView" : 17,
            "componentType" : 5126,
            "count" : 8,
            "max" : [
                30,
                0,
                1349.9501953125
            ],
            "min" : [
                -30,
                0,
                -1349.9501953125
            ],
            "type" : "VEC3"
        },
        {
            "bufferView" : 18,
            "componentType" : 5126,
            "count" : 2,
            "max" : [
                0,
                0,
                1500
            ],
            "min" : [
                0,
                0,
                -1500
            ],
            "type" : "VEC3"
        },
        {
            "bufferView" : 19,
            "componentType" : 5123,
            "count" : 2,
            "type" : "SCALAR"
        },
        {
            "bufferView" : 20,
            "componentType" : 5126,
            "count" : 2,
            "max" : [
                0,
                0.5,
                1450
            ],
            "min" : [
                0,
                0.5,
                -1450
            ],
            "type" : "VEC3"
        },
        {
            "bufferView" : 21,
            "componentType" : 5126,
            "count" : 2,
            "max" : [
                0,
                0,
                1260
            ],
            "min" : [
                0,
                0,
                -1260
            ],
            "type" : "VEC3"
        },
        {
            "bufferView" : 22,
            "componentType" : 5126,
            "count" : 2,
            "max" : [
                0,
                0,
                1349.9501953125
            ],
            "min" : [
                0,
                0,
                -1349.9501953125
            ],
            "type" : "VEC3"
        }
    ],
    "bufferViews" : [
        {
            "buffer" : 0,
            "byteLength" : 48,
            "byteOffset" : 0
        },
        {
            "buffer" : 0,
            "byteLength" : 48,
            "byteOffset" : 48
        },
        {
            "buffer" : 0,
            "byteLength" : 12,
            "byteOffset" : 96
        },
        {
            "buffer" : 0,
            "byteLength" : 384,
            "byteOffset" : 108
        },
        {
            "buffer" : 0,
            "byteLength" : 384,
            "byteOffset" : 492
        },
        {
            "buffer" : 0,
            "byteLength" : 96,
            "byteOffset" : 876
        },
        {
            "buffer" : 0,
            "byteLength" : 48,
            "byteOffset" : 972
        },
        {
            "buffer" : 0,
            "byteLength" : 16,
            "byteOffset" : 1020
        },
        {
            "buffer" : 0,
            "byteLength" : 1296,
            "byteOffset" : 1036
        },
        {
            "buffer" : 0,
            "byteLength" : 1296,
            "byteOffset" : 2332
        },
        {
            "buffer" : 0,
            "byteLength" : 324,
            "byteOffset" : 3628
        },
        {
            "buffer" : 0,
            "byteLength" : 648,
            "byteOffset" : 3952
        },
        {
            "buffer" : 0,
            "byteLength" : 108,
            "byteOffset" : 4600
        },
        {
            "buffer" : 0,
            "byteLength" : 192,
            "byteOffset" : 4708
        },
        {
            "buffer" : 0,
            "byteLength" : 32,
            "byteOffset" : 4900
        },
        {
            "buffer" : 0,
            "byteLength" : 72,
            "byteOffset" : 4932
        },
        {
            "buffer" : 0,
            "byteLength" : 348,
            "byteOffset" : 5004
        },
        {
            "buffer" : 0,
            "byteLength" : 96,
            "byteOffset" : 5352
        },
        {
            "buffer" : 0,
            "byteLength" : 24,
            "byteOffset" : 5448
        },
        {
            "buffer" : 0,
            "byteLength" : 4,
            "byteOffset" : 5472
        },
        {
            "buffer" : 0,
            "byteLength" : 24,
            "byteOffset" : 5476
        },
        {
            "buffer" : 0,
            "byteLength" : 24,
            "byteOffset" : 5500
        },
        {
            "buffer" : 0,
            "byteLength" : 24,
            "byteOffset" : 5524
        }
    ],
    "buffers" : [
        {
            "byteLength" : 5548,
            "uri" : "data:application/octet-stream;base64,"
        }
    ]
}
